<svg xmlns="http://www.w3.org/2000/svg" width="2024" height="866" viewBox="0 0 2024 866">
  <title>Plaza Vea logo con fondo</title>
  <g>
    <rect width="2024" height="866" style="fill: #ff1b2e"/>
    <g>
      <path d="M2368.3-219.4c-17.7-6.2-52.4-11.2-88.3-11.2-129.5,0-283,93.8-386.5,242.9-53,76.4-66,114.3-66,114.3s2.7-67.2-6.2-110.4c-5.7-27.9-15.6-35.6-30.5-39.3-22.1-5.5-43.1,6.2-55.3,19.5,13.9,12.7,25.4,38,28.6,65.8,4.1,35.3,4.7,67.8,5.3,132.8.1,10.9-2.1,15,6.4,15h48c10.1,0,16.7-3.9,19.4-10.2,18.6-44.3,71.6-151.8,135.5-217.2,107.5-109.9,199.4-147.8,297.6-147.8,46.7,0,78.4,6.2,98.8,19.3,21.2-5.6,43.5-55.9-6.8-73.5" transform="translate(-557 387)" style="fill: #ffea00"/>
      <path d="M2153.3,103.3c0-63.9-46-110.1-107.6-110.1s-111.1,49.5-111.1,110.1,49.9,110.1,111.6,110.1c30.3,0,63.4-9.4,88.1-31.2,7.1-6.3,9.9-22.9-.3-33.6s-25.5-9.2-36.5-1.1c-12.8,9.5-28.2,16.8-48.8,16.8-28.9,0-49.9-17.3-52.8-42.3h136.5c11.1.1,20.9-7.6,20.9-18.7M2095,82h-98.3c5.4-24,23-38.9,48.9-38.9S2090.1,59.5,2095,82" transform="translate(-557 387)" style="fill: #fff"/>
      <path d="M2396,185V100.5c0-60.6-44.8-107.3-112-107.3-61.6,0-112,49.5-112,110.1,0,63.8,41.3,110.1,104.7,110.1,28.4,0,55.3-17.3,61.6-31.2,0,19,13.2,31.2,28.9,31.2s28.9-14.4,28.9-30.3m-59.3-79.9c0,32.2-21,58.1-54.8,58.1s-50.9-26-50.9-58.1,19.1-58.1,52.8-58.1,52.9,26,52.9,58.1" transform="translate(-557 387)" style="fill: #fff"/>
      <path d="M1045,184V-87.2a29.5,29.5,0,0,0-29.2-29.3c-16.2,0-29.8,13.4-29.8,29.3V184.2c0,15.9,13.6,28.8,29.8,28.8a29.1,29.1,0,0,0,29.2-28.9" transform="translate(-557 387)" style="fill: #fff"/>
      <path d="M1292,185V100.5c0-60.6-44.8-107.3-112-107.3-61.6,0-112,49.5-112,110.1,0,63.8,41.3,110.1,104.7,110.1,28.4,0,55.3-17.3,61.6-31.2,0,19,13.2,31.2,28.9,31.2s28.9-14.4,28.9-30.3m-58.9-79.9c0,32.2-21,58.1-54.8,58.1s-50.9-26-50.9-58.1,19.1-58.1,52.8-58.1,52.9,26,52.9,58.1" transform="translate(-557 387)" style="fill: #fff"/>
      <path d="M1505.9,186c0-13-11.3-24-24.5-24h-86.1L1497.6,39.3a26.8,26.8,0,0,0,6.4-16.9A25.5,25.5,0,0,0,1478.5-3H1340.3c-13.2,0-24.4,11-24.4,24s11.2,24,24.4,24h84L1322,167.7a28.2,28.2,0,0,0-6.4,18.3c0,12,12.3,23.5,24.5,24s27.9,0,42.1,0h99.3c13.2,0,24.5-11.1,24.5-24" transform="translate(-557 387)" style="fill: #fff"/>
      <path d="M1738,185V100.5c0-60.6-44.8-107.3-112-107.3-61.6,0-112,49.5-112,110.1,0,63.8,41.3,110.1,104.7,110.1,28.4,0,55.3-17.3,61.6-31.2,0,19,13.2,31.2,28.9,31.2s28.9-14.4,28.9-30.3m-59.4-79.9c0,32.2-21,58.1-54.8,58.1s-50.9-26-50.9-58.1,19.1-58.1,52.8-58.1,52.9,26,52.9,58.1" transform="translate(-557 387)" style="fill: #fff"/>
      <path d="M962.5,103.3c0-60.5-45.9-110-105.9-110-27.3,0-50.3,14.4-60.5,31.3,0-19.3-15.1-31.3-27.9-31.3A29.4,29.4,0,0,0,739,22.6V294.3a29.2,29.2,0,0,0,29.2,28.9c16.1,0,29.8-12.9,29.8-28.9V183.5c7.3,14,31.3,29.8,58.6,29.8,60.1,0,106-49.5,105.9-110m-59,0c0,32.2-19.1,58.1-52.8,58.1s-52.8-26-52.8-58.1S817,45.2,850.7,45.2s52.8,25.9,52.8,58.1" transform="translate(-557 387)" style="fill: #fff"/>
    </g>
  </g>
</svg>
