<svg id="Capa_1" data-name="Capa 1" xmlns="http://www.w3.org/2000/svg" width="2007.76" height="1040.96" viewBox="0 0 2007.76 1040.96">
  <title>Vivanda</title>
  <g>
    <path d="M881.36,113.31l-1.17-5.1-.76-2.63a11.18,11.18,0,0,0-1.72-3.63l.5,1c-1.38-2.79-3.07-3.08-4.36-3.85a31.32,31.32,0,0,0-4.1-1.42c-2.73-.71-5.39-1.38-8.08-2-5.31-1.09-10.59-2.49-16.05-2.56a9.85,9.85,0,0,0-1.74.16,7.17,7.17,0,0,1,1.74-.16,11.24,11.24,0,0,1-2-.13h-.13a5.37,5.37,0,0,1-1.25.81,2.78,2.78,0,0,0-.34.28,1.84,1.84,0,0,0-.86,2.08v6.27c-.35,4.19-.53,8.39-1,12.62l-1.17,12.76-.46,6.47-.35,3.37v1.88a22.86,22.86,0,0,0,.87,2.91h0l.55.92c5,8.3,13.72,11.81,20.42,13.91a32.61,32.61,0,0,0,11.9,1.73h1.38a1.72,1.72,0,0,0,1.53.33,11.14,11.14,0,0,0,5.42-2.37,13.15,13.15,0,0,0,3.94-5.62,24.08,24.08,0,0,0,1.35-7c.29-8.08-1-14-2-20.91C882.84,120,882.08,116.68,881.36,113.31Z" transform="translate(-428.62 651.3)" style="fill: #2d6e41"/>
    <path d="M1435.25,300a27.34,27.34,0,0,0,1.76-8.74A62.48,62.48,0,0,1,1435.25,300Z" transform="translate(-428.62 651.3)" style="fill: #2d6e41"/>
    <path d="M793.44,75.48a90.82,90.82,0,0,0-15.9-20A90,90,0,0,0,757,40.36a32.74,32.74,0,0,0-7.26-2.7,20.77,20.77,0,0,0-4.8-.53,18.37,18.37,0,0,0-5.16.75,12.08,12.08,0,0,0-4,2.09,10.64,10.64,0,0,0-3.62,5.48c-.89,4.62.08,5.74.38,7.43A29.28,29.28,0,0,0,734,56.63l1.25,2.52a46.78,46.78,0,0,1,2.82,9.28,72.89,72.89,0,0,1,1.22,10.27c.23,3.62.35,7.33.39,11.06a70.81,70.81,0,0,1-.7,10.33,139,139,0,0,1-4.88,21.25c-4.35,14.14-10.25,28.22-16.43,42.08-12.27,27.79-26.86,54.72-42.53,81Q663.31,264.08,650.36,283c-8.67,12.4-17.55,25-27.89,35.4-2.46,1.77-5.72,3.46-6.35,3-1.59-.2-4.09-2.51-5.92-5-3.94-5.27-6.74-11.58-9.72-18l-17.89-38.6L547,182.39l-35.19-77.47-8.69-19.43c-3.22-6.56-9.73-10.61-16.29-13.11-.74-.28-1.52-.4-2.26-.65s-1.81-.52-2.71-.79a107.52,107.52,0,0,0-24.32-3.85l-1.2-.09c-3.83-.18-7.66-.27-11.47-.3-1.9,0-3.57.08-5.14.2l-1.42.12a25.83,25.83,0,0,0-5.23,1,.77.77,0,0,0-.43.09,4.41,4.41,0,0,0-2.88,1.75,3.48,3.48,0,0,0-1,2.17A5.52,5.52,0,0,0,430,76.94V77l.16.09a4.42,4.42,0,0,0,.76.66c.29.13.6.2.89.33s.64.23,1,.35c3.23,1.25,6.58,2.15,9.86,3.34a35.79,35.79,0,0,1,10.49,6.28h0c5.12,3.58,8.54,9.06,11.83,14.31a140.93,140.93,0,0,1,8.74,16.6l15,34.51,29.86,69L577.43,361l-.13-.33a14.93,14.93,0,0,0,4.25,6.7,12.23,12.23,0,0,0,8.17,2.86c5.81-.35,9.33-2.73,13-4.79a139.39,139.39,0,0,0,18.79-14.79A437.41,437.41,0,0,0,654,317.1q30.67-35,58-72.47c18.32-25,35.89-50.4,52-77,8.13-13.3,15.87-26.72,23-40.93a154,154,0,0,0,9.38-22.6A55.6,55.6,0,0,0,798,97.45a29.83,29.83,0,0,0,.23-8.07A38,38,0,0,0,793.44,75.48ZM432.22,68.34A7.48,7.48,0,0,0,430,69.7,4.33,4.33,0,0,1,432.22,68.34ZM429,73.09a10.76,10.76,0,0,0,.19,1.61,5.76,5.76,0,0,1-.19-1.6Z" transform="translate(-428.62 651.3)" style="fill: #00713c"/>
    <path d="M883.57,357.75l-1.13-25c-.68-8.12,0-16.43,0-24.65.12-16.53-.18-32.94-1.44-49.78l1-25.12V214.51a10.47,10.47,0,0,0-2.28-6.59c-6.52-6.65-15.29-7.62-23.19-9.92a95.25,95.25,0,0,0-12.32-2.3,54.29,54.29,0,0,0-6.24-.34,6.18,6.18,0,0,0-3.29.73,2.6,2.6,0,0,0-.57.47,2.33,2.33,0,0,0-.41.45,2.72,2.72,0,0,0-.35,1.37,9.64,9.64,0,0,0,.78,2.55c1.1,3.07,2.73,5.92,3.51,9.14a102.54,102.54,0,0,1,2.62,12.13c1.18,8.21,1.07,16.55,1,24.85-.59,16.59-1.84,33.28-3,49.91s-2.31,33.29-3.07,49.94l-.12,3.13-.06,1.56a17.63,17.63,0,0,0,.13,2.66,17,17,0,0,0,5.09,10,26.82,26.82,0,0,0,7.37,5,47.61,47.61,0,0,0,6.8,2.61,53.24,53.24,0,0,0,14.52,2.4,20,20,0,0,0,5.22-.47,12.44,12.44,0,0,0,7.67-5.25,12.82,12.82,0,0,0,1.86-7.6ZM834,196.86l-.15.17a.64.64,0,0,1,.15-.22Z" transform="translate(-428.62 651.3)" style="fill: #00713c"/>
    <path d="M1183.08,201.41c-3.18-4.72-6.4-9.42-11.29-13.75a22.79,22.79,0,0,0-4.46-3,14.13,14.13,0,0,0-3.09-1.14,8.93,8.93,0,0,0-5,0c-4.59,2-5,4.4-6,5.92a32.53,32.53,0,0,0-1.81,4.71l-.52,1.63,1,3a5.32,5.32,0,0,1,.22,1.7l-.22,3.94c-.23,2.78-.6,5.56-1.08,8.32a113.08,113.08,0,0,1-4.35,16.38,200.6,200.6,0,0,1-14.24,31.63c-11.36,20.58-24.37,40.09-40.12,57.19a151.83,151.83,0,0,1-12,11.92,37.47,37.47,0,0,1-5.82,4.24l-.5.25a31.8,31.8,0,0,1-2.86-3.7,80.39,80.39,0,0,1-4.29-7.09c-2.79-4.93-5.32-10.26-7.82-15.78l-31-64.86-7.89-16.34c-2.88-5.6-5-10.49-9.08-16.76a9,9,0,0,0-.74-.93,7.15,7.15,0,0,0-1.33-1.17l-1.49-.89a24.23,24.23,0,0,0-2.68-1.17,36.07,36.07,0,0,0-5-1.45,81.9,81.9,0,0,0-9.52-1.44c-6.24-.58-12.36-.76-18.47-.77l-9.13.11c-3,.17-6.22-.19-10.36,1.34a8.51,8.51,0,0,0-3.35,2.33,6.9,6.9,0,0,0-1.62,4.64,8.35,8.35,0,0,0,3.94,6.57,31.8,31.8,0,0,0,4.42,2.26,35.1,35.1,0,0,1,3.52,2.07c9.2,6.33,16.3,16.21,22.51,26.25,12.64,20.32,22.93,42.1,33.2,63.83l9.78,20.51c5.35,11.69,9.5,20.35,12.42,25.88h0c.4.79.76,1.6,1.19,2.38a37.46,37.46,0,0,0,5.33,7.27,14.79,14.79,0,0,0,4.07,3l.44.19a8.38,8.38,0,0,0,3.32.79,8.29,8.29,0,0,1-3.1-.74,8.28,8.28,0,0,0,3.1.74,10.85,10.85,0,0,0,3.5-.92c.63-.23,1.24-.51,1.85-.79l.58-.28a100.49,100.49,0,0,0,8.67-5.18c4.54-3.07,8.87-6.35,13.24-9.69,8.66-6.69,17-13.8,25.39-20.8,16.76-14.1,32.54-29.29,48-44.92,7.64-7.89,15.19-15.86,22.17-24.49s13.66-17.62,17.55-29a29.72,29.72,0,0,0,1.52-9.46,28.94,28.94,0,0,0-2.38-9.34A93.67,93.67,0,0,0,1183.08,201.41ZM1043.08,366c.2.22.39.5.59.7l-.09-.09c-.18-.19-.35-.41-.52-.61Zm1.61,2a14,14,0,0,0,2.7,2,13.61,13.61,0,0,1-2.72-2Zm10.46,2.21.39-.17Zm4.21-2.1-.84.47Z" transform="translate(-428.62 651.3)" style="fill: #00713c"/>
    <path d="M1502.2,346.2a8.52,8.52,0,0,0-4.61-1.11,4.32,4.32,0,0,1-1.76-.33,9.72,9.72,0,0,1-3.6-2.72,36.77,36.77,0,0,1-5.65-9.54c-3.09-7.1-5.14-14.87-7.24-22.58a385.18,385.18,0,0,1-9.21-47.11c-2.24-15.89-4.21-31.84-6.13-47.77v-.3l-.26.14c-9,4.93-19.17,7.49-29.35,8.66a75.84,75.84,0,0,0-26.13-19c-10-4.36-21-5.92-31.89-5.62-21.87.4-43.14,7.2-63,16.22a209.49,209.49,0,0,0-54.86,36.2c-15.78,15.07-31.36,32.73-36.58,56.44a56.89,56.89,0,0,0-.76,18.23,39.33,39.33,0,0,0,6.67,18.1,47.09,47.09,0,0,0,14.06,13,76.9,76.9,0,0,0,16.63,7.16,134.93,134.93,0,0,0,33.93,5.34,229.16,229.16,0,0,0,33.7-1c22.45-2.37,44.15-8.44,64.95-16.93a178,178,0,0,0,47.58-29.63c1.79,6.71,3.6,13.44,5.73,20.4l4.93,16.06a40.27,40.27,0,0,0,3.09,8.23,22.19,22.19,0,0,0,3,4.44,10.51,10.51,0,0,0,6.58,3.76l.4.06h.23c5.26-.29,9.11-1.73,13.13-3.09s7.73-3,11.46-4.68a90.71,90.71,0,0,0,11.2-5.81,20.45,20.45,0,0,0,5.61-4.85,7.57,7.57,0,0,0,1.23-2.56,7.27,7.27,0,0,0,.07-2.86A6.9,6.9,0,0,0,1502.2,346.2Zm-116.67-14.1c-18.6,6.74-38.45,10.92-57.65,10.91-9.58-.09-18.89-1.75-27.05-5.59s-15.1-9.6-19.29-16.67a26.56,26.56,0,0,1-3.85-11c-.39-3.43.15-8.46.63-12.82a72.59,72.59,0,0,1,8.22-25.42,99.43,99.43,0,0,1,38-38.9,101.63,101.63,0,0,1,25.77-10.91,97.91,97.91,0,0,1,28.3-2.65c9.6.18,18.81,2.6,28.28,5.83l7,2.46c2.13.81,5.12,1.86,6.46,2.5,3,2.66,5.26,7.73,7.18,12.09a139,139,0,0,1,8.76,28.44,71.77,71.77,0,0,1,1,14.88c-.09,2-.15,3.94-.28,6,.13-.93.2-1.84.29-2.77-.32,5.65-1,9.55-2,11.51C1422.11,315.28,1403.92,325,1385.53,332.1Z" transform="translate(-428.62 651.3)" style="fill: #00713c"/>
    <path d="M1800.52,337.7a10.69,10.69,0,0,0-3.87-1.57l-3.49-.33a3.48,3.48,0,0,1-1-.35,6.11,6.11,0,0,1-2.16-2.11c-1.63-2.42-2.8-5.92-3.7-10.44l-3.57-13.8-7.3-27.61L1768,253.88c-2.46-9.08-4.77-18.65-8.6-28a85.11,85.11,0,0,0-6.9-13.8c-2.71-4.43-7.17-9.45-12.55-12.08-10.89-5.46-22.23-4.45-32.1-2.1A123.76,123.76,0,0,0,1680.31,209c-8.59,4.71-16.76,9.41-24.76,15.54-15.57,12.23-27.61,27.51-38.59,43.14a491.74,491.74,0,0,0-26.74,44c3.18-24.18,7.15-48.21,9.86-72.43l2.23-19.7c.31-3.28.58-6.58.69-9.86.73-3.75-3-6.07-5.61-7.59-.94-.5-2-.84-2.9-1.28l-.29-.13a116.87,116.87,0,0,0-15.28-5.7,66.9,66.9,0,0,0-9.66-2.12,8,8,0,0,1-3.45-.89h-.5a2.5,2.5,0,0,1-.38,1h-.62c-.21-.25-.2-.15-.31-.11l-.35.16a2.45,2.45,0,0,0-.7.49,2.67,2.67,0,0,0-.31.38,3.56,3.56,0,0,0-.38.75,3.86,3.86,0,0,0-.14.4,5,5,0,0,0-.19,1.54h0c0-.27,0-.27.08-.13,0-.11-.09-.14-.08.14,0-.27,0-.25.08-.14h0a1.65,1.65,0,0,1,.1.42l.15.88.27,1.76.49,3.52.93,7q.94,7,1.45,14.15a272,272,0,0,1,.64,28.42c-.84,18.94-.73,38-3.29,56.74l-3.17,28.39c-.52,2.1-.34,5.54,1.58,7.66a17.17,17.17,0,0,0,6.24,4.62,54.14,54.14,0,0,0,14.06,4.41,32.11,32.11,0,0,0,3.78.35,6.45,6.45,0,0,0,4.86-1.54,10.13,10.13,0,0,0,2.31-3.85l1.32-3.24c1.74-4.44,3.57-8.71,5.55-13a259.78,259.78,0,0,1,13.24-24.81c9.74-16,20.83-31.27,33.65-44.67a162,162,0,0,1,20.57-18.3c7.27-5.27,15.2-9.67,23.11-11a28.12,28.12,0,0,1,5.68-.36,10,10,0,0,1,4.19,1.28c2.76,1.5,5.48,4.39,7.73,7.76,4.62,6.9,7,14.88,9.33,24.21l14.38,55.16c2.53,9.24,4.72,18.23,7.64,27.61l5.15,14.42a11.46,11.46,0,0,0,.92,2.18,14.67,14.67,0,0,0,2.51,3.29,15,15,0,0,0,6.9,3.81,24.12,24.12,0,0,0,10.85-.08,112,112,0,0,0,29-11.77,30.78,30.78,0,0,0,7.54-6.36,15.31,15.31,0,0,0,3.33-7.14,11.33,11.33,0,0,0-.85-6.67A10.1,10.1,0,0,0,1800.52,337.7ZM1566,267.9c0-.91,0-1.8.06-2.71l-.06,2.7Zm2.11-75.06c-.61-.06-1.2-.12-1.76-.14a12.85,12.85,0,0,1,1.74.13Zm-3.8.16h.25a.85.85,0,0,0-.38.06l.12-.11Zm-.84.1a2.6,2.6,0,0,0-.44.32,2.43,2.43,0,0,1,.42-.33Zm-.9.88a3.25,3.25,0,0,0-.27.51,3.55,3.55,0,0,1,.25-.52Zm-.65,2.57a5.06,5.06,0,0,1,.18-1.46,6.37,6.37,0,0,0-.2,1.45Zm.16.18a1.47,1.47,0,0,0-.06-.25.44.44,0,0,1,0,.24Z" transform="translate(-428.62 651.3)" style="fill: #00713c"/>
    <path d="M2090.14,36a51.79,51.79,0,0,0-9.49-4.54,78.37,78.37,0,0,0-20-4.28,38.83,38.83,0,0,0-5.28,0c-1.77.18-4.48.66-5.86,3.42-1.07,3-.26,4.27-.35,6.06l.33,5.21c.42,6.9.86,13.86,1.52,20.71,2.52,27.49,3.6,55,5.18,82.6L2058,228v0a82.15,82.15,0,0,0-7-5.59c2.46,1.79,4.93,3.65,7.22,5.59-2.72-2.31-5.58-4.48-8.49-6.58l-.15-.11c-15.31-11-33-18.86-51.87-21.06-22.42-2.54-45.35,1-66.44,9.13a203.69,203.69,0,0,0-58,34.94,168.84,168.84,0,0,0-23.32,24.93c-6.9,9.13-13,19.15-16.76,30.34s-5.14,23.53-1.45,35.65a36.14,36.14,0,0,0,10.18,16c4.79,4.43,10.36,7.2,15.78,9.56a101.27,101.27,0,0,0,34.64,7.5,266.33,266.33,0,0,0,34.58-1.38c22.8-2.36,45.42-6.39,67.19-13.42,10.89-3.48,22.09-6.14,32.76-10.33l19.16-8.44v23.67c.25,2.21.37,4.41.68,6.6a24.25,24.25,0,0,0,7.14,13.7,29.68,29.68,0,0,0,5.38,4.18,53.1,53.1,0,0,0,5.18,2.67,46.27,46.27,0,0,0,11.43,3.61,30.55,30.55,0,0,0,3.18.37l1.64.07a13.25,13.25,0,0,0,2.75-.17,9.5,9.5,0,0,0,6.28-3.94,13,13,0,0,0,2-5.74c.08-1.72,0-2,0-3l-2.11-82.91-1.1-41.22.94-41.12c.37-13.72.35-27.45,1-41.19l2.77-41.24,2.7-41.41,1.25-20.82.62-10.39.31-5.2c0-1.76.48-3.24-.13-5.92C2096.63,40.6,2093.2,38,2090.14,36ZM2050.61,307.3a336.5,336.5,0,0,1-49.13,18.09c-17.54,4.93-35.21,9.07-52.86,10.17-17.29.75-36.06-.09-49.57-7.6a25.68,25.68,0,0,1-12.82-16.1c-2.08-7-1.88-15.78-.9-24.18a72.73,72.73,0,0,1,22.34-43.74c12.11-11.54,28.52-19.26,45.57-22.5,8.48-1.58,17.4-1.84,26.56-1.74a232,232,0,0,1,27.16,2.09c18,2.52,36,7.09,51.17,18.16C2055.23,263.23,2052.79,285.43,2050.61,307.3Zm-6.46-89.5c.43.28.86.56,1.28.85Z" transform="translate(-428.62 651.3)" style="fill: #00713c"/>
    <path d="M2436.26,351.27a6.9,6.9,0,0,0-3.08-4.93,8.56,8.56,0,0,0-4.6-1.1,4.28,4.28,0,0,1-1.76-.33,9.74,9.74,0,0,1-3.6-2.73,37,37,0,0,1-5.65-9.55c-3.09-7.1-5.15-14.86-7.24-22.57a387.52,387.52,0,0,1-9.21-47.11c-2.24-15.89-4.21-31.83-6.12-47.77v-.3l-.26.14c-9,4.93-19.17,7.49-29.35,8.66a75.92,75.92,0,0,0-26.13-19c-10-4.36-21-5.92-31.89-5.62-21.87.4-43.14,7.2-63,16.23a209.71,209.71,0,0,0-54.86,36.2c-15.78,15.07-31.36,32.72-36.59,56.44a56.87,56.87,0,0,0-.76,18.23,39.33,39.33,0,0,0,6.71,18.06,47.08,47.08,0,0,0,14.06,13,76.91,76.91,0,0,0,16.61,7.17,134.91,134.91,0,0,0,33.93,5.34,229.15,229.15,0,0,0,33.7-1c22.45-2.37,44.14-8.44,64.95-16.93a178,178,0,0,0,47.52-29.68c1.79,6.71,3.61,13.44,5.74,20.41l4.93,16.06a40.71,40.71,0,0,0,3.08,8.22,21.93,21.93,0,0,0,3,4.45A10.51,10.51,0,0,0,2393,375h.64c5.27-.29,9.11-1.73,13.13-3.09s7.72-3,11.46-4.68a90.89,90.89,0,0,0,11.2-5.82,20.44,20.44,0,0,0,5.61-4.85,7.59,7.59,0,0,0,1.23-2.57A7.31,7.31,0,0,0,2436.26,351.27ZM2317,332.08c-18.6,6.74-38.45,10.92-57.65,10.91-9.57-.1-18.9-1.75-27.05-5.58s-15.1-9.6-19.29-16.67a26.62,26.62,0,0,1-3.85-11c-.39-3.42.15-8.45.63-12.82a72.64,72.64,0,0,1,8.23-25.4,99.52,99.52,0,0,1,38-38.9,101.56,101.56,0,0,1,25.77-10.91,97.87,97.87,0,0,1,28.3-2.65c9.6.19,18.81,2.61,28.28,5.83l7,2.47c2.13.81,5.11,1.86,6.46,2.51,3,2.65,5.23,7.72,7.17,12.1a137.28,137.28,0,0,1,8.77,28.44,71.17,71.17,0,0,1,1,14.87c-.08,2-.15,3.94-.28,5.85.13-1,.21-1.88.29-2.82-.32,5.76-1,9.72-2.07,11.69-13.12,15.24-31.32,24.91-49.72,32.05Z" transform="translate(-428.62 651.3)" style="fill: #00713c"/>
    <path d="M2366.72,300a27.37,27.37,0,0,0,1.77-8.87A62.21,62.21,0,0,1,2366.72,300Z" transform="translate(-428.62 651.3)" style="fill: #2d6e41"/>
    <path d="M1500.06-358.41c79.7,28.51,152.82,102.15,152.82,188.51,0,111.1-99.1,201.14-221.33,201.14S1210.17-58.82,1210.17-169.9c0-86.19,75.48-159.73,154.13-188.32-118.69,26.16-206.45,118.84-206.45,229.2,0,130.66,123,236.63,274.75,236.63S1707.31,1.7,1707.31-129C1707.36-239.66,1619.2-332.54,1500.06-358.41Z" transform="translate(-428.62 651.3)" style="fill: #e2165d"/>
    <path d="M1346.47-473.56c9.39,11.48,49.06,95.94,45.79,121-24.15-12.91-151.54-91.59-162.45-260.58,151.55,46.89,248.59,115.57,238.8,206.07a148.64,148.64,0,0,1-45.82,91.59,220.1,220.1,0,0,0-27.26-98.12A218.47,218.47,0,0,0,1346.47-473.56Z" transform="translate(-428.62 651.3)" style="fill: #00a361"/>
    <path d="M1420-539.51c10.92,7.58,40.3,30.16,54,71.41,19.86,59.92-9.45,110.92-14.17,118.84a119,119,0,0,0,29-16.56c31.78-25,70.89-89.45,44-285.48A308.33,308.33,0,0,0,1466.35-600,308.19,308.19,0,0,0,1420-539.51Z" transform="translate(-428.62 651.3)" style="fill: #00713c"/>
    <path d="M1432.61,155.52" transform="translate(-428.62 651.3)" style="fill: #2c6d40"/>
  </g>
</svg>
